HIERARCHY
ROOT Hips
{
	OFFSET -0.001795 -0.223333 0.028219
	CHANNELS 6 Xposition Yposition Zposition Zrotation Yrotation Xrotation 
	JOINT LeftUpLeg
	{
		OFFSET 0.069520 -0.091406 -0.006815
		CHANNELS 3 Zrotation Yrotation Xrotation
		JOINT LeftLeg
		{
			OFFSET 0.034277 -0.375199 -0.004496
			CHANNELS 3 Zrotation Yrotation Xrotation
			JOINT LeftFoot
			{
				OFFSET -0.013596 -0.397961 -0.043693
				CHANNELS 3 Zrotation Yrotation Xrotation
				JOINT LeftToe
				{
					OFFSET 0.026358 -0.055791 0.119288
					CHANNELS 3 Zrotation Yrotation Xrotation
					End Site
					{
						OFFSET 0.000000 0.000000 0.000000
					}
				}
			}
		}
	}
	JOINT RightUpLeg
	{
		OFFSET -0.067670 -0.090522 -0.004320
		CHANNELS 3 Zrotation Yrotation Xrotation
		JOINT RightLeg
		{
			OFFSET -0.038290 -0.382569 -0.008850
			CHANNELS 3 Zrotation Yrotation Xrotation
			JOINT RightFoot
			{
				OFFSET 0.015774 -0.398415 -0.042312
				CHANNELS 3 Zrotation Yrotation Xrotation
				JOINT RightToe
				{
					OFFSET -0.025372 -0.048144 0.123348
					CHANNELS 3 Zrotation Yrotation Xrotation
					End Site
					{
						OFFSET 0.000000 0.000000 0.000000
					}
				}
			}
		}
	}
	JOINT Spine
	{
		OFFSET -0.002533 0.108963 -0.026696
		CHANNELS 3 Zrotation Yrotation Xrotation
		JOINT Spine1
		{
			OFFSET 0.005487 0.135180 0.001092
			CHANNELS 3 Zrotation Yrotation Xrotation
			JOINT Spine2
			{
				OFFSET 0.001457 0.052922 0.025425
				CHANNELS 3 Zrotation Yrotation Xrotation
				JOINT Neck
				{
					OFFSET -0.002778 0.213870 -0.042857
					CHANNELS 3 Zrotation Yrotation Xrotation
					JOINT Head
					{
						OFFSET 0.005152 0.064970 0.051349
						CHANNELS 3 Zrotation Yrotation Xrotation
						End Site
						{
							OFFSET 0.000000 0.000000 0.000000
						}
					}
				}
				JOINT LeftShoulder
				{
					OFFSET 0.078845 0.121749 -0.034090
					CHANNELS 3 Zrotation Yrotation Xrotation
					JOINT LeftArm
					{
						OFFSET 0.090977 0.030469 -0.008868
						CHANNELS 3 Zrotation Yrotation Xrotation
						JOINT LeftForeArm
						{
							OFFSET 0.259612 -0.012772 -0.027456
							CHANNELS 3 Zrotation Yrotation Xrotation
							JOINT LeftHand
							{
								OFFSET 0.249234 0.008986 -0.001171
								CHANNELS 3 Zrotation Yrotation Xrotation
								End Site
								{
									OFFSET 0.000000 0.000000 0.000000
								}
							}
						}
					}
				}
				JOINT RightShoulder
				{
					OFFSET -0.081759 0.118833 -0.038615
					CHANNELS 3 Zrotation Yrotation Xrotation
					JOINT RightArm
					{
						OFFSET -0.096012 0.032551 -0.009143
						CHANNELS 3 Zrotation Yrotation Xrotation
						JOINT RightForeArm
						{
							OFFSET -0.253742 -0.013329 -0.021401
							CHANNELS 3 Zrotation Yrotation Xrotation
							JOINT RightHand
							{
								OFFSET -0.255298 0.007772 -0.005559
								CHANNELS 3 Zrotation Yrotation Xrotation
								End Site
								{
									OFFSET 0.000000 0.000000 0.000000
								}
							}
						}
					}
				}
			}
		}
	}
}
MOTION
Frames: 8
Frame Time: 0.05000000
0.000000 0.833842 0.000000 1.806803 -1.127408 -4.880768 -2.709138 -2.804225 -23.263859 -6.555864 3.586639 76.508207 4.746806 6.281087 -11.465951 0.000000 0.000000 0.000000 1.903101 0.775485 -6.461534 2.307907 0.432627 28.070358 -8.814951 -0.384630 -45.608052 0.000000 0.000000 0.000000 -0.726364 -0.154053 3.979269 -0.217330 0.445747 -15.367161 -0.227585 3.153187 29.588066 5.171382 0.188360 -35.456496 0.000000 0.000000 0.000000 22.696112 6.244895 0.698662 -93.174548 -12.845376 -2.697482 -14.619358 -24.101793 4.372160 0.000000 0.000000 0.000000 -23.911926 -9.664409 -0.647787 99.525302 8.509990 -0.447402 7.403259 21.541872 2.203621 0.000000 0.000000 0.000000 
-0.004694 0.833099 -0.395123 2.614703 -3.529005 -2.469522 0.765244 -2.862289 -35.579509 -9.402969 6.525191 69.938262 5.064715 6.232256 -14.212428 0.000000 0.000000 0.000000 2.225078 0.088557 -0.951201 -0.733186 1.405823 23.922636 -9.796434 3.894830 -48.459067 0.000000 0.000000 0.000000 -1.817694 -0.039519 0.781507 -1.242113 0.745277 -15.087261 2.301762 8.818803 30.333342 5.938966 0.419535 -34.287779 0.000000 0.000000 0.000000 22.247057 7.461642 1.452897 -91.739343 -9.568171 -9.501293 -20.198387 -20.075758 4.625966 0.000000 0.000000 0.000000 -24.021008 -7.806677 -1.557038 99.084408 12.948837 9.234226 3.459902 25.767815 1.827941 0.000000 0.000000 0.000000 
-0.011178 0.822248 -0.730934 2.833849 -2.882701 -2.334023 1.121054 -3.102161 -39.639473 -10.147681 5.241340 54.277159 7.803886 12.458335 -22.163004 0.000000 0.000000 0.000000 2.869624 -0.914820 7.365533 -3.510529 1.561179 15.579481 -10.162161 8.387261 -49.670363 0.000000 0.000000 0.000000 -1.746711 -0.050988 1.348014 -1.473269 0.836964 -15.626543 2.715275 11.007641 30.141812 5.465588 1.051533 -34.911675 0.000000 0.000000 0.000000 22.173207 8.967704 1.773487 -90.197558 -5.004739 -15.415927 -20.302895 -16.366870 3.727942 0.000000 0.000000 0.000000 -24.237587 -7.424906 -2.082600 96.177241 17.242531 15.384416 0.424827 29.986749 1.462035 0.000000 0.000000 0.000000 
-0.002531 0.811078 -0.988634 3.197843 -3.453342 -2.403909 -0.620087 -3.627341 -38.955324 -7.250704 2.135421 31.635025 8.001177 13.243137 -23.896257 0.000000 0.000000 0.000000 1.790210 -1.515494 13.808875 -3.371156 1.246641 12.034834 -10.604371 7.640321 -51.209838 0.000000 0.000000 0.000000 -1.781786 -0.048691 1.227905 -1.665233 0.886164 -15.164362 3.198973 12.798928 30.478112 5.305971 1.326949 -34.688904 0.000000 0.000000 0.000000 22.325948 9.764913 2.002024 -90.562378 -2.125561 -19.247290 -18.173003 -14.701182 3.026686 0.000000 0.000000 0.000000 -24.765731 -6.433463 -2.316443 96.162870 21.960623 21.726723 -6.311141 32.237008 -0.153462 0.000000 0.000000 0.000000 
0.004513 0.798680 -1.148130 2.515041 -5.875528 -1.623210 1.813488 -2.553839 -39.646503 -8.037079 1.900665 19.437660 8.169559 15.055332 -21.141563 0.000000 0.000000 0.000000 -1.206528 -1.428492 19.255042 -0.144359 0.424040 9.160627 -10.847557 7.961609 -50.979228 0.000000 0.000000 0.000000 -0.737454 0.001065 -0.142403 -2.457601 1.116498 -15.493219 4.277470 14.154491 31.196949 4.555430 1.734390 -34.751542 0.000000 0.000000 0.000000 22.059111 10.710694 1.822205 -89.069200 2.015639 -22.506766 -17.011490 -13.580600 2.607305 0.000000 0.000000 0.000000 -24.723296 -4.897995 -2.242327 94.606428 25.423598 24.966360 -10.188161 35.145322 -1.218272 0.000000 0.000000 0.000000 
0.028794 0.792337 -1.161241 3.529117 -6.828304 2.579389 1.444613 -2.900825 -45.383289 -9.359769 2.826213 26.587294 7.999658 15.333988 -20.572540 0.000000 0.000000 0.000000 -3.157976 -0.776768 17.021543 -3.577431 1.419701 14.375892 -10.599316 10.736249 -49.886444 0.000000 0.000000 0.000000 -1.796299 0.224234 -6.669788 -2.483787 1.104647 -14.908787 4.633342 15.025979 31.413893 4.589278 1.855411 -35.453191 0.000000 0.000000 0.000000 20.966406 11.360566 1.535566 -87.229135 3.740740 -23.281450 -14.411988 -10.542151 1.734329 0.000000 0.000000 0.000000 -24.348429 -4.564858 -2.324787 95.478266 26.329699 27.311003 -11.866674 34.999282 -1.714752 0.000000 0.000000 0.000000 
0.089832 0.794062 -1.071570 5.144774 -4.454844 4.503538 -2.155691 -4.734932 -47.477954 -9.647696 3.457849 35.866163 7.727502 14.646484 -16.978024 0.000000 0.000000 0.000000 -4.460540 -0.396396 13.692703 -5.880345 3.415733 28.633541 -7.646812 14.109789 -40.879468 0.000000 0.000000 0.000000 -3.866771 0.254202 -9.656610 -2.371040 1.099774 -14.816935 4.137617 13.782629 30.689529 4.630529 1.886823 -36.541029 0.000000 0.000000 0.000000 20.961986 11.807284 1.496754 -84.983802 6.100566 -24.152917 -15.929432 -9.010771 1.587763 0.000000 0.000000 0.000000 -24.357354 -5.244094 -2.380995 96.876220 23.088520 24.849932 -11.837794 37.470459 -1.808694 0.000000 0.000000 0.000000 
0.151231 0.804746 -1.125907 6.408132 -1.502202 3.894207 -6.196307 -6.169900 -43.811065 -8.596315 2.910448 39.656559 7.600443 13.258056 -19.172783 0.000000 0.000000 0.000000 -4.397937 -0.051595 5.137325 -5.146416 5.774882 53.099734 -0.726575 13.968989 -18.586685 0.000000 0.000000 0.000000 -5.492582 0.156111 -8.580123 -2.164213 1.073685 -15.149705 3.067273 11.464234 29.766145 4.156687 1.961652 -37.118333 0.000000 0.000000 0.000000 21.250728 11.423438 1.469678 -85.880960 5.376834 -23.299417 -15.889277 -9.685820 1.720071 0.000000 0.000000 0.000000 -23.693079 -5.841062 -2.193200 97.775492 19.416212 20.232048 -7.326699 37.765287 -0.428253 0.000000 0.000000 0.000000 
